<?xml version="1.0" encoding="UTF-8" standalone="no"?>
<!DOCTYPE svg PUBLIC "-//W3C//DTD SVG 1.1//EN" "http://www.w3.org/Graphics/SVG/1.1/DTD/svg11.dtd">
<svg width="100%" height="100%" viewBox="0 0 500 500" version="1.1" xmlns="http://www.w3.org/2000/svg" xmlns:xlink="http://www.w3.org/1999/xlink" xml:space="preserve" xmlns:serif="http://www.serif.com/" style="fill-rule:evenodd;clip-rule:evenodd;stroke-linejoin:round;stroke-miterlimit:2;">
    <g transform="matrix(1,0,0,1.02218,-21.0127,-10.6128)">
        <path d="M500,70.706L500,439.209C500,464.295 479.181,484.662 453.539,484.662L88.487,484.662C62.844,484.662 42.025,464.295 42.025,439.209L42.025,70.706C42.025,45.62 62.844,25.253 88.487,25.253L453.539,25.253C479.181,25.253 500,45.62 500,70.706Z" style="fill:rgb(8,62,133);"/>
    </g>
    <g id="_2cvE-6nXfR-RfzWvRrU1c.svg" serif:id="2cvE-6nXfR-RfzWvRrU1c.svg" transform="matrix(1.14844,0,0,1.14844,250,250)">
        <g transform="matrix(1,0,0,1,-256,-256)">
            <path d="M206.921,329.122C189.394,313.479 179.604,294.586 179.559,271.081C179.511,245.28 179.398,219.48 179.214,193.68C179.192,190.571 180.438,189.62 183.368,189.649C193.032,189.747 202.707,189.934 212.357,189.549C215.901,189.408 221.955,192.586 221.822,184.775C221.687,176.92 215.569,180.544 212.142,180.347C203.006,179.821 193.82,180.017 184.658,180.142C180.404,180.2 178.737,178.94 179.233,174.276C180.121,165.922 179.826,165.866 188.188,165.849C197.353,165.831 206.518,165.889 215.683,165.861C218.604,165.851 221.797,166.556 221.885,161.694C221.976,156.664 218.758,157.068 215.561,157.059C205.396,157.033 195.231,157.075 185.067,156.996C179.292,156.951 179.326,156.747 179.133,147.296C179.038,142.685 181.929,142.841 185.111,142.859C195.609,142.919 206.108,142.854 216.605,142.928C219.835,142.951 222.027,142.434 221.997,138.349C221.969,134.383 220.404,133.202 216.583,133.282C206.756,133.49 196.921,133.375 187.09,133.334C185.133,133.325 183.073,133.745 181.29,132.495C182.895,106.452 212.323,65.861 262.668,68.596C296.118,70.413 335.217,106.013 331.87,133.337C325.35,133.337 318.735,133.334 312.121,133.338C306.622,133.342 301.119,133.483 295.625,133.318C291.838,133.204 291.325,135.249 291.284,138.361C291.243,141.511 292.256,142.916 295.565,142.89C306.562,142.803 317.561,142.874 328.559,142.922C334.315,142.947 334.099,142.99 334.368,151C334.517,155.444 333.311,157.316 328.532,157.18C318.043,156.883 307.539,157.099 297.041,157.046C293.833,157.029 291.171,156.984 291.23,161.614C291.286,166.035 293.886,165.837 296.84,165.832C307.338,165.814 317.839,165.995 328.332,165.757C332.811,165.655 334.981,167.001 334.314,171.704C334.175,172.684 334.204,173.712 334.318,174.699C334.787,178.765 333.143,180.331 328.955,180.248C318.294,180.038 307.626,180.247 296.962,180.151C293.518,180.12 291.297,180.619 291.234,184.95C291.169,189.385 293.466,189.718 296.886,189.686C307.716,189.585 318.55,189.773 329.379,189.608C333.027,189.553 334.358,190.748 334.339,194.476C334.206,220.638 335.114,246.837 333.992,272.952C332.675,303.648 317.283,326.47 289.636,339.734C262.62,352.696 236.272,349.625 211.579,332.661C210.071,331.625 208.658,330.451 206.921,329.122M254.826,289.675C269.096,289.744 281.208,281.053 283.255,268.089C284.386,260.931 283.615,253.472 283.688,246.148C283.707,244.177 282.596,242.623 280.776,242.756C274.526,243.214 274.604,239.431 274.578,234.859C274.512,223.572 263.882,215.572 252.91,218.217C243.654,220.449 239.272,226.347 239.182,236.831C239.155,239.935 239.54,243.059 234.727,242.541C231.365,242.18 229.982,244.092 229.987,247.401C229.993,251.395 229.611,255.389 229.626,259.383C229.688,276.516 237.591,286.293 254.826,289.675Z" style="fill:rgb(238,238,238);fill-rule:nonzero;stroke:rgb(100,172,238);stroke-width:3px;"/>
            <path d="M179.826,436.904C180.055,424.238 178.205,425.708 190.892,425.643C205.222,425.57 219.556,425.49 233.881,425.767C238.584,425.858 239.929,424.21 239.805,419.695C239.526,409.538 239.485,399.362 239.79,389.207C239.917,384.973 238.357,383.421 234.396,382.634C204.564,376.702 181.037,360.925 163.363,336.343C150.911,319.024 144.347,299.557 142.592,278.337C141.394,263.855 142.32,249.361 141.869,234.881C141.753,231.153 143.022,229.576 147.056,229.549C161.449,229.453 161.355,229.321 161.437,243.814C161.528,259.938 160.577,276.106 164.142,292.069C172.207,328.182 203.956,358.462 240.479,364.639C292.979,373.517 343.062,337.195 350.793,284.502C352.979,269.599 351.331,254.563 351.774,239.595C351.838,237.431 351.812,235.263 351.853,233.098C351.894,230.903 352.946,229.7 355.23,229.7C359.561,229.7 363.893,229.659 368.224,229.673C370.234,229.679 371.36,230.733 371.326,232.761C370.876,260.107 374.423,287.872 362.719,314.034C346.468,350.358 319.269,373.55 280.319,382.435C275.823,383.46 273.863,384.966 274.055,389.889C274.451,400.039 274.37,410.218 274.131,420.376C274.031,424.615 275.596,425.776 279.639,425.73C295.3,425.554 310.964,425.667 326.627,425.665C333.295,425.664 333.294,425.656 333.429,432.085C333.471,434.084 333.478,436.084 333.57,438.081C333.896,445.159 333.907,445.165 327.089,445.165C280.6,445.165 234.11,445.165 187.621,445.159C179.891,445.158 179.891,445.146 179.826,436.904Z" style="fill:rgb(238,238,238);fill-rule:nonzero;stroke:rgb(100,172,238);stroke-width:3px;"/>
            <path d="M250.224,242.394C248.215,242.315 246.567,242.171 246.196,240.361C245.258,235.795 245.682,231.374 248.91,227.755C252.014,224.275 256.164,223.815 260.341,225.083C264.496,226.344 266.853,229.443 267.328,233.836C267.487,235.315 267.659,236.798 267.722,238.283C267.843,241.114 266.654,242.525 263.602,242.417C259.305,242.266 254.999,242.398 250.224,242.394Z" style="fill:rgb(238,238,238);fill-rule:nonzero;stroke:rgb(100,172,238);stroke-width:3px;"/>
            <path d="M263.012,255.357C264.367,257.283 264.97,259.322 264.237,260.901C261.913,265.907 262.222,271.183 262.363,276.315C259.745,277.994 257.195,277.132 254.782,277.309C251.912,277.52 250.899,276.108 251.366,273.325C251.982,269.661 251.781,266.209 249.783,262.784C247.829,259.435 249.079,256.093 251.987,253.93C255.688,251.178 259.464,251.813 263.012,255.357Z" style="fill:rgb(238,238,238);fill-rule:nonzero;stroke:rgb(100,172,238);stroke-width:3px;"/>
        </g>
    </g>
</svg>
